<svg width="256" height="256" viewBox="0 0 256 256" fill="none" xmlns="http://www.w3.org/2000/svg">
<rect width="256" height="256" rx="128" fill="white"/>
<path d="M116.581 121.532H169.871V142.468H127.581C121.506 142.468 116.581 137.543 116.581 131.468V121.532Z" fill="#0000AC"/>
<rect x="128" y="170.065" width="50.4355" height="20.9355" fill="#0000AC"/>
<path d="M69 132C69 139.748 70.5261 147.42 73.4911 154.578C76.4561 161.737 80.802 168.241 86.2807 173.719C91.7594 179.198 98.2635 183.544 105.422 186.509C112.58 189.474 120.252 191 128 191L128 170.017C123.008 170.017 118.064 169.033 113.452 167.123C108.839 165.212 104.648 162.412 101.118 158.882C97.5879 155.352 94.7876 151.161 92.8771 146.548C90.9666 141.936 89.9832 136.992 89.9832 132L69 132Z" fill="#0000AC"/>
<rect x="69" y="93.9355" width="20.9355" height="39.0161" fill="#0000AC"/>
<rect x="69" y="73.9516" width="109.435" height="19.9839" fill="#0000AC"/>
</svg>
