<svg width="256" height="256" viewBox="0 0 256 256" fill="none" xmlns="http://www.w3.org/2000/svg">
<rect width="256" height="256" rx="128" fill="#193B4E"/>
<path opacity="0.289597" fill-rule="evenodd" clip-rule="evenodd" d="M109.557 59.2977L184.523 82.0809C187.383 82.9499 189.334 85.5595 189.334 88.5146V151.84C189.334 155.558 186.283 158.571 182.519 158.571C181.839 158.571 181.164 158.471 180.515 158.274L105.548 135.491C102.689 134.621 100.737 132.012 100.737 129.057V65.7314C100.737 62.0138 103.789 59 107.552 59C108.232 59 108.907 59.1003 109.557 59.2977Z" fill="#0088B2"/>
<path opacity="0.289597" fill-rule="evenodd" clip-rule="evenodd" d="M109.22 59.2977L184.186 82.0809C187.045 82.9499 188.997 85.5595 188.997 88.5146V151.84C188.997 155.558 185.946 158.571 182.182 158.571C181.503 158.571 180.827 158.471 180.177 158.274L105.211 135.491C102.352 134.621 100.4 132.012 100.4 129.057V65.7314C100.4 62.0138 103.452 59 107.215 59C107.895 59 108.57 59.1003 109.22 59.2977Z" fill="#0088B2"/>
<path opacity="0.6" fill-rule="evenodd" clip-rule="evenodd" d="M92.5341 70.0705L167.5 92.8537C170.36 93.7228 172.311 96.3323 172.311 99.2874V162.613C172.311 166.33 169.26 169.344 165.496 169.344C164.817 169.344 164.141 169.244 163.492 169.047L88.5256 146.263C85.6661 145.394 83.7148 142.785 83.7148 139.83V76.5042C83.7148 72.7866 86.766 69.7728 90.5298 69.7728C91.2092 69.7728 91.8848 69.8731 92.5341 70.0705Z" fill="#0088B2"/>
<path fill-rule="evenodd" clip-rule="evenodd" d="M75.4863 83.5302L150.453 106.313C153.312 107.183 155.263 109.792 155.263 112.747V176.096C155.263 179.814 152.212 182.828 148.448 182.828C147.775 182.828 147.105 182.729 146.461 182.535L126.299 176.462V193.632C126.299 195.491 124.773 196.998 122.891 196.998C121.798 196.998 120.771 196.479 120.13 195.604L101.396 170.003C100.972 169.423 100.37 168.991 99.68 168.771L71.3912 159.765C68.5755 158.869 66.6669 156.281 66.6669 153.358V89.964C66.6669 86.2463 69.7181 83.2325 73.482 83.2325C74.1614 83.2325 74.8369 83.3329 75.4863 83.5302Z" fill="#0088B2"/>
<path d="M86.2356 119.985C83.6105 114.824 88.4416 109.015 94.009 110.637L114.865 116.715C117.108 117.369 118.857 119.124 119.5 121.367C120.992 126.58 116.075 131.372 110.891 129.756L90.1529 123.29C88.4536 122.76 87.0415 121.569 86.2356 119.985Z" fill="white"/>
<path d="M128.266 154.355C132.153 151.426 131.146 145.357 126.523 143.854L105.833 137.13C103.96 136.521 101.905 136.866 100.331 138.052C96.4437 140.981 97.4512 147.05 102.074 148.553L122.764 155.277C124.636 155.886 126.692 155.541 128.266 154.355Z" fill="white"/>
</svg>
